<?xml version="1.0" standalone="no"?>
<!DOCTYPE svg PUBLIC "-//W3C//DTD SVG 20010904//EN"
 "http://www.w3.org/TR/2001/REC-SVG-20010904/DTD/svg10.dtd">
<svg version="1.0" xmlns="http://www.w3.org/2000/svg"
 width="1050.000000pt" height="600.000000pt" viewBox="0 0 1050.000000 600.000000"
 preserveAspectRatio="xMidYMid meet">

<g transform="translate(0.000000,600.000000) scale(0.100000,-0.100000)"
fill="#000000" stroke="none">
<path d="M6270 5468 c0 -268 -3 -339 -12 -335 -114 42 -1009 349 -1011 346
-10 -13 -1161 -1375 -1205 -1426 l-54 -63 43 19 c24 11 101 46 171 78 l126 58
462 523 c253 287 464 522 469 522 4 0 256 -319 559 -710 508 -653 554 -709
575 -701 12 5 310 115 662 246 352 131 642 239 644 241 4 4 -250 447 -261 454
-4 3 -169 62 -368 130 l-360 125 0 316 0 316 -220 101 -220 100 0 -340z m-807
-163 l68 -27 497 -684 c273 -376 496 -687 495 -691 -3 -12 -106 -44 -114 -36
-17 20 -1039 1465 -1039 1470 0 3 6 3 13 0 6 -3 43 -17 80 -32z"/>
<path d="M5110 4704 c-98 -43 -150 -121 -150 -229 l0 -65 100 0 100 0 0 155
c0 85 -3 155 -7 155 -5 -1 -24 -8 -43 -16z"/>
<path d="M5250 4565 l0 -155 101 0 101 0 -7 68 c-13 127 -59 190 -170 232
l-25 10 0 -155z"/>
<path d="M3360 4343 c-19 -8 -113 -46 -207 -85 l-173 -70 -2 -361 -3 -360
-284 -121 -283 -122 -673 -919 c-370 -506 -671 -921 -670 -923 1 -1 71 46 156
105 584 409 1221 716 1854 895 l185 53 607 723 c573 681 608 721 624 705 9
-10 297 -317 640 -683 l624 -665 139 -3 140 -3 -25 28 c-343 370 -1484 1589
-1488 1590 -3 1 -251 -103 -551 -232 l-545 -234 -3 350 c-2 270 -5 349 -15
348 -6 0 -28 -7 -47 -16z m938 -437 c-24 -30 -295 -363 -603 -739 l-560 -686
-99 -36 c-54 -19 -101 -33 -103 -31 -3 2 262 328 589 723 l593 718 105 52 c58
28 109 52 113 52 5 1 -11 -23 -35 -53z"/>
<path d="M4960 4145 l0 -165 100 0 100 0 0 165 0 165 -100 0 -100 0 0 -165z"/>
<path d="M5250 4145 l0 -165 100 0 100 0 0 165 0 165 -100 0 -100 0 0 -165z"/>
<path d="M6817 3740 c-709 -268 -1290 -490 -1292 -492 -2 -2 114 -124 258
-272 l262 -268 650 537 c358 296 671 556 698 578 35 29 66 44 123 59 42 10 78
17 80 15 2 -2 -314 -277 -701 -611 -388 -334 -708 -612 -711 -617 -3 -5 57 -9
143 -9 l148 0 780 646 c733 606 781 644 795 627 8 -11 316 -341 683 -735 l668
-717 152 -3 c84 -2 154 -2 155 -1 6 3 -1588 1753 -1596 1752 -4 0 -587 -220
-1295 -489z"/>
<path d="M4439 3410 c-43 -23 -96 -81 -115 -126 -8 -19 -14 -63 -14 -99 l0
-65 100 0 100 0 0 155 c0 174 0 173 -71 135z"/>
<path d="M4600 3276 l0 -156 101 0 102 0 -6 70 c-10 116 -80 213 -170 236
l-27 6 0 -156z"/>
<path d="M7962 3384 c-91 -45 -142 -134 -142 -246 l0 -48 105 0 105 0 0 160
c0 88 -4 160 -8 160 -4 0 -31 -12 -60 -26z"/>
<path d="M8130 3250 l0 -160 101 0 102 0 -5 73 c-6 84 -30 139 -83 185 -29 26
-94 62 -111 62 -2 0 -4 -72 -4 -160z"/>
<path d="M4310 2865 l0 -165 100 0 100 0 0 165 0 165 -100 0 -100 0 0 -165z"/>
<path d="M4600 2865 l0 -165 100 0 100 0 0 165 0 165 -100 0 -100 0 0 -165z"/>
<path d="M7820 2820 l0 -170 105 0 105 0 0 170 0 170 -105 0 -105 0 0 -170z"/>
<path d="M8130 2820 l0 -170 100 0 100 0 0 170 0 170 -100 0 -100 0 0 -170z"/>
</g>
</svg>
